<svg version="1.1" id="Layer_1" xmlns="http://www.w3.org/2000/svg" xmlns:xlink="http://www.w3.org/1999/xlink" x="0px" y="0px"
	 width="100%" viewBox="0 0 1254 1254" enable-background="new 0 0 1254 1254" xml:space="preserve">
<path fill="#FEFEFE" opacity="1.000000" stroke="none"
	d="
M1.000000,479.000000
	C1.000000,319.333344 1.000000,160.166672 1.000000,1.000000
	C419.000000,1.000000 837.000000,1.000000 1255.000000,1.000000
	C1255.000000,419.000000 1255.000000,837.000000 1255.000000,1255.000000
	C837.000000,1255.000000 419.000000,1255.000000 1.000000,1255.000000
	C1.000000,996.500000 1.000000,738.000000 1.000000,479.000000
M44.892227,678.657959
	C48.602493,725.743347 58.361111,771.614563 73.514427,816.276550
	C111.422325,928.004089 176.375015,1020.840759 269.821991,1093.041992
	C368.074860,1168.956543 479.567474,1210.471069 603.565125,1217.538696
	C653.250549,1220.370605 702.406311,1215.032837 750.922241,1204.087036
	C848.005615,1182.184082 935.112122,1139.814697 1010.003296,1074.150024
	C1108.779663,987.543030 1170.406616,878.790710 1197.832153,750.561279
	C1211.498535,686.663330 1214.286133,622.168579 1207.293701,557.178589
	C1198.510132,475.541107 1173.945312,398.970062 1134.020264,327.331543
	C1090.912354,249.981888 1033.703369,184.997498 960.867493,134.499191
	C886.414978,82.879974 804.122070,50.311989 714.248779,37.675697
	C642.613403,27.603670 571.378357,29.842381 500.640137,45.576229
	C429.110626,61.486073 362.614288,89.213020 301.730469,130.064819
	C222.965912,182.914215 161.821655,251.887955 116.320648,334.805725
	C82.748016,395.986084 60.940010,461.288422 50.150864,530.258728
	C42.493256,579.210449 40.479996,628.356567 44.892227,678.657959
z"/>
<path fill="#DC1A1F" opacity="1.000000" stroke="none"
	d="
M44.872974,678.197144
	C40.479996,628.356567 42.493256,579.210449 50.150864,530.258728
	C60.940010,461.288422 82.748016,395.986084 116.320648,334.805725
	C161.821655,251.887955 222.965912,182.914215 301.730469,130.064819
	C362.614288,89.213020 429.110626,61.486073 500.640137,45.576229
	C571.378357,29.842381 642.613403,27.603670 714.248779,37.675697
	C804.122070,50.311989 886.414978,82.879974 960.867493,134.499191
	C1033.703369,184.997498 1090.912354,249.981888 1134.020264,327.331543
	C1173.945312,398.970062 1198.510132,475.541107 1207.293701,557.178589
	C1214.286133,622.168579 1211.498535,686.663330 1197.832153,750.561279
	C1170.406616,878.790710 1108.779663,987.543030 1010.003296,1074.150024
	C935.112122,1139.814697 848.005615,1182.184082 750.922241,1204.087036
	C702.406311,1215.032837 653.250549,1220.370605 603.565125,1217.538696
	C479.567474,1210.471069 368.074860,1168.956543 269.821991,1093.041992
	C176.375015,1020.840759 111.422325,928.004089 73.514427,816.276550
	C58.361111,771.614563 48.602493,725.743347 44.872974,678.197144
M1083.899536,816.897095
	C1085.827271,813.903503 1087.307617,810.452698 1089.788818,808.024780
	C1093.390747,804.500122 1094.195312,800.561279 1094.130859,795.845093
	C1094.102173,793.737976 1095.283569,791.507874 1096.283813,789.518555
	C1097.716675,786.668884 1100.161011,784.162964 1100.929199,781.188843
	C1101.755005,777.992554 1100.515137,774.271545 1101.300903,771.054077
	C1102.558350,765.905029 1104.755127,761.120361 1107.288818,756.273682
	C1111.313965,748.573730 1112.678345,739.454651 1114.941772,730.876099
	C1115.818848,727.552368 1116.523804,724.063354 1116.504517,720.654175
	C1116.481689,716.624756 1114.897461,712.543030 1115.224243,708.585938
	C1115.847656,701.035767 1117.415527,693.567566 1118.463135,686.047424
	C1119.688232,677.252258 1120.962646,668.457092 1121.870239,659.626465
	C1122.740234,651.161804 1123.427734,642.660400 1123.712402,634.158997
	C1123.961792,626.708740 1123.754272,619.224426 1123.348145,611.777039
	C1123.026978,605.886780 1121.946167,600.041687 1121.483765,594.154419
	C1121.054321,588.687012 1121.260742,583.162781 1120.693359,577.715027
	C1120.219238,573.162598 1118.704346,568.718628 1118.229126,564.166199
	C1117.306519,555.330505 1116.651733,546.459961 1116.166626,537.588501
	C1115.941040,533.461121 1115.285034,529.515808 1118.844116,525.607300
	C1123.384521,520.621338 1119.969604,513.068481 1113.444092,510.785339
	C1111.339844,510.049164 1108.218750,507.591064 1108.315918,506.100006
	C1108.561401,502.330383 1109.686279,498.224884 1111.713379,495.056641
	C1114.760376,490.294434 1115.416992,485.331177 1111.006470,481.805359
	C1108.312134,479.651520 1104.335083,479.102203 1100.613159,477.712402
	C1101.360840,473.105255 1102.222900,467.793976 1102.938843,463.382660
	C1110.050903,465.522064 1117.283936,468.359894 1124.785278,469.796478
	C1135.548462,471.857727 1139.926758,467.641724 1140.038208,456.677765
	C1140.061523,454.384003 1140.668335,452.102264 1140.837036,449.802582
	C1141.130005,445.811615 1141.611694,441.913513 1137.042236,439.425934
	C1132.128052,436.750885 1127.463135,433.590851 1122.824707,430.442932
	C1115.926025,425.761108 1113.677856,426.442230 1110.003906,433.743896
	C1108.289673,437.151093 1108.025146,442.278809 1102.274536,442.278992
	C1101.881470,442.278992 1101.032593,443.669250 1101.199463,444.106232
	C1101.467407,444.808441 1102.328857,445.504791 1103.083740,445.739380
	C1103.861328,445.980957 1104.811523,445.667175 1106.056763,445.566437
	C1104.551025,449.215424 1103.362549,452.439728 1101.851074,455.504730
	C1101.494507,456.227936 1099.358521,456.955841 1099.211060,456.767212
	C1097.122803,454.095245 1094.843140,451.439240 1093.495483,448.388123
	C1092.959106,447.173676 1094.439209,444.921967 1095.277466,443.283844
	C1096.322144,441.242279 1099.079834,438.194458 1098.598877,437.598633
	C1096.982300,435.596405 1094.299194,434.412048 1091.925293,433.092834
	C1091.281982,432.735260 1090.061401,433.330414 1089.495850,432.933105
	C1086.936157,431.134857 1082.450928,429.165009 1082.425049,427.207031
	C1082.340210,420.812897 1076.613525,417.912415 1074.989014,412.717834
	C1074.868042,412.331177 1073.832031,412.230804 1072.821411,411.405792
	C1056.057617,375.751556 1035.735107,342.310852 1010.721375,310.958832
	C776.363037,542.971741 542.337769,774.654968 308.145721,1006.503296
	C310.197906,1008.387512 311.493134,1009.665588 312.879028,1010.836304
	C360.086212,1050.714844 412.785828,1081.040039 471.235046,1101.128052
	C550.313782,1128.306152 631.214050,1135.217163 713.738953,1121.603027
	C775.719299,1111.378052 834.183533,1091.083496 887.298584,1057.242676
	C954.190308,1014.624390 1005.805054,957.103882 1046.834229,889.696472
	C1060.966675,866.477966 1072.660278,842.019348 1083.899536,816.897095
M208.201767,362.722931
	C167.744446,429.265228 143.663757,501.287048 136.140366,578.795166
	C131.178162,629.917175 133.973068,680.654602 144.498428,730.934509
	C156.627457,788.875244 178.190155,843.083496 209.841537,893.116516
	C220.222702,909.526550 231.838608,925.155518 243.148544,941.515869
	C478.191925,708.583557 712.363525,476.515167 946.548767,244.433243
	C739.384460,63.818497 379.528320,87.230515 208.201767,362.722931
z"/>
<path fill="#FEFDFD" opacity="1.000000" stroke="none"
	d="
M208.404205,362.419373
	C379.528320,87.230515 739.384460,63.818497 946.548767,244.433243
	C712.363525,476.515167 478.191925,708.583557 243.148544,941.515869
	C231.838608,925.155518 220.222702,909.526550 209.841537,893.116516
	C178.190155,843.083496 156.627457,788.875244 144.498428,730.934509
	C133.973068,680.654602 131.178162,629.917175 136.140366,578.795166
	C143.663757,501.287048 167.744446,429.265228 208.404205,362.419373
M427.500366,432.945129
	C468.949127,432.945129 510.397919,432.945129 552.232910,432.945129
	C547.851013,459.617096 543.567871,485.687683 539.305542,511.632019
	C503.465942,511.632019 468.227386,511.632019 432.650085,511.632019
	C434.164185,501.773956 435.616821,492.315979 437.099792,482.660583
	C406.766846,482.660583 377.008606,482.660583 346.909363,482.660583
	C344.220642,498.962341 341.662994,515.057800 338.835266,531.105713
	C338.285522,534.225525 338.915588,536.370544 340.952179,538.725281
	C354.356842,554.223816 367.690491,569.785400 380.872406,585.473389
	C383.225281,588.273621 385.577576,589.393066 389.288849,589.383606
	C443.113129,589.246948 496.937958,589.321777 550.762085,589.164185
	C553.305115,589.156738 556.285522,588.026550 558.315491,586.454834
	C580.049500,569.626709 601.674438,552.656189 623.183594,535.541565
	C625.030212,534.072266 626.607239,531.425903 627.008911,529.101624
	C636.533813,473.976379 645.919678,418.826935 655.245605,363.667480
	C661.629211,325.911133 667.925598,288.139801 674.070496,250.344208
	C674.371765,248.491455 673.418274,245.779068 672.081482,244.415588
	C656.217529,228.234482 640.207092,212.195877 624.100891,196.255371
	C622.757385,194.925674 620.444214,193.879074 618.578735,193.874756
	C563.921082,193.747864 509.262970,193.749329 454.605164,193.853134
	C452.635956,193.856873 450.332764,194.654739 448.751831,195.838974
	C426.758759,212.313583 404.841278,228.889709 383.001648,245.567169
	C381.609863,246.629974 380.410522,248.632217 380.129211,250.361343
	C372.885315,294.889526 365.741943,339.434265 358.761322,384.004333
	C358.472900,385.845947 359.330688,388.594147 360.663208,389.847931
	C371.703186,400.235901 383.596375,409.787354 394.002563,420.757568
	C403.201385,430.454987 413.245728,435.316406 427.500366,432.945129
z"/>
<path fill="#FEFDFD" opacity="1.000000" stroke="none"
	d="
M1083.219482,817.002441
	C1072.660278,842.019348 1060.966675,866.477966 1046.834229,889.696472
	C1005.805054,957.103882 954.190308,1014.624390 887.298584,1057.242676
	C834.183533,1091.083496 775.719299,1111.378052 713.738953,1121.603027
	C631.214050,1135.217163 550.313782,1128.306152 471.235046,1101.128052
	C412.785828,1081.040039 360.086212,1050.714844 312.879028,1010.836304
	C311.493134,1009.665588 310.197906,1008.387512 308.145721,1006.503296
	C542.337769,774.654968 776.363037,542.971741 1010.721375,310.958832
	C1035.735107,342.310852 1056.057617,375.751556 1073.055908,412.055603
	C1077.182739,421.708649 1081.408203,430.584259 1084.916138,439.734802
	C1123.190308,539.573914 1129.966309,641.684509 1105.396729,745.613708
	C1099.677734,769.805542 1090.698486,793.226685 1083.219482,817.002441
M950.200745,970.768921
	C960.567383,887.937805 970.914062,805.104126 981.380005,722.285522
	C981.763794,719.248535 980.951843,717.355469 978.859009,715.337891
	C962.423889,699.493164 946.117188,683.514954 929.636902,667.717712
	C928.258972,666.396912 925.902222,665.432373 923.996155,665.425598
	C885.832031,665.290833 847.667175,665.283142 809.503052,665.422424
	C807.439209,665.429932 804.962341,666.464722 803.383911,667.834900
	C785.138245,683.672791 766.978394,699.611267 748.963745,715.710999
	C747.217957,717.271179 745.833801,720.000549 745.567017,722.334106
	C742.501465,749.151733 739.739990,776.003967 736.790771,802.835144
	C729.437012,869.738831 722.011047,936.634583 714.740173,1003.547180
	C714.560791,1005.197937 715.370483,1007.481445 716.534607,1008.672546
	C729.929688,1022.377319 743.429077,1035.982178 757.072632,1049.439209
	C758.514526,1050.861328 761.047668,1051.885986 763.079773,1051.894775
	C796.410645,1052.039673 829.742432,1052.014160 863.073730,1051.919434
	C864.743042,1051.914673 866.756592,1051.363525 868.025818,1050.341553
	C891.769775,1031.222778 915.212158,1011.721619 939.226990,992.952209
	C946.581238,987.204346 950.508301,980.823853 950.200745,970.768921
M658.446655,1051.981445
	C661.543091,1051.981445 664.639526,1051.981445 667.920776,1051.981445
	C683.816895,923.041199 699.625366,794.811462 715.514709,665.925903
	C706.084106,665.925903 697.461182,665.766785 688.852112,666.042480
	C686.810120,666.107849 684.317383,667.127441 682.871033,668.557068
	C650.292908,700.759338 617.830383,733.078674 585.357544,765.387329
	C584.494690,766.245789 583.759033,767.232056 582.284424,768.950867
	C594.158936,768.950867 605.034729,768.950867 616.334534,768.950867
	C605.217834,863.526978 594.167297,957.539917 583.066162,1051.984131
	C608.215820,1051.984131 632.839478,1051.984131 658.446655,1051.981445
z"/>
<path fill="#DC1C20" opacity="1.000000" stroke="none"
	d="
M1083.559570,816.949768
	C1090.698486,793.226685 1099.677734,769.805542 1105.396729,745.613708
	C1129.966309,641.684509 1123.190308,539.573914 1084.916138,439.734802
	C1081.408203,430.584259 1077.182739,421.708649 1073.255859,412.351379
	C1073.832031,412.230804 1074.868042,412.331177 1074.989014,412.717834
	C1076.613525,417.912415 1082.340210,420.812897 1082.425049,427.207031
	C1082.450928,429.165009 1086.936157,431.134857 1089.495850,432.933105
	C1090.061401,433.330414 1091.281982,432.735260 1091.925293,433.092834
	C1094.299194,434.412048 1096.982300,435.596405 1098.598877,437.598633
	C1099.079834,438.194458 1096.322144,441.242279 1095.277466,443.283844
	C1094.439209,444.921967 1092.959106,447.173676 1093.495483,448.388123
	C1094.843140,451.439240 1097.122803,454.095245 1099.211060,456.767212
	C1099.358521,456.955841 1101.494507,456.227936 1101.851074,455.504730
	C1103.362549,452.439728 1104.551025,449.215424 1106.056763,445.566437
	C1104.811523,445.667175 1103.861328,445.980957 1103.083740,445.739380
	C1102.328857,445.504791 1101.467407,444.808441 1101.199463,444.106232
	C1101.032593,443.669250 1101.881470,442.278992 1102.274536,442.278992
	C1108.025146,442.278809 1108.289673,437.151093 1110.003906,433.743896
	C1113.677856,426.442230 1115.926025,425.761108 1122.824707,430.442932
	C1127.463135,433.590851 1132.128052,436.750885 1137.042236,439.425934
	C1141.611694,441.913513 1141.130005,445.811615 1140.837036,449.802582
	C1140.668335,452.102264 1140.061523,454.384003 1140.038208,456.677765
	C1139.926758,467.641724 1135.548462,471.857727 1124.785278,469.796478
	C1117.283936,468.359894 1110.050903,465.522064 1102.938843,463.382660
	C1102.222900,467.793976 1101.360840,473.105255 1100.613159,477.712402
	C1104.335083,479.102203 1108.312134,479.651520 1111.006470,481.805359
	C1115.416992,485.331177 1114.760376,490.294434 1111.713379,495.056641
	C1109.686279,498.224884 1108.561401,502.330383 1108.315918,506.100006
	C1108.218750,507.591064 1111.339844,510.049164 1113.444092,510.785339
	C1119.969604,513.068481 1123.384521,520.621338 1118.844116,525.607300
	C1115.285034,529.515808 1115.941040,533.461121 1116.166626,537.588501
	C1116.651733,546.459961 1117.306519,555.330505 1118.229126,564.166199
	C1118.704346,568.718628 1120.219238,573.162598 1120.693359,577.715027
	C1121.260742,583.162781 1121.054321,588.687012 1121.483765,594.154419
	C1121.946167,600.041687 1123.026978,605.886780 1123.348145,611.777039
	C1123.754272,619.224426 1123.961792,626.708740 1123.712402,634.158997
	C1123.427734,642.660400 1122.740234,651.161804 1121.870239,659.626465
	C1120.962646,668.457092 1119.688232,677.252258 1118.463135,686.047424
	C1117.415527,693.567566 1115.847656,701.035767 1115.224243,708.585938
	C1114.897461,712.543030 1116.481689,716.624756 1116.504517,720.654175
	C1116.523804,724.063354 1115.818848,727.552368 1114.941772,730.876099
	C1112.678345,739.454651 1111.313965,748.573730 1107.288818,756.273682
	C1104.755127,761.120361 1102.558350,765.905029 1101.300903,771.054077
	C1100.515137,774.271545 1101.755005,777.992554 1100.929199,781.188843
	C1100.161011,784.162964 1097.716675,786.668884 1096.283813,789.518555
	C1095.283569,791.507874 1094.102173,793.737976 1094.130859,795.845093
	C1094.195312,800.561279 1093.390747,804.500122 1089.788818,808.024780
	C1087.307617,810.452698 1085.827271,813.903503 1083.559570,816.949768
z"/>
<path fill="#020202" opacity="1.000000" stroke="none"
	d="
M427.000549,432.944672
	C413.245728,435.316406 403.201385,430.454987 394.002563,420.757568
	C383.596375,409.787354 371.703186,400.235901 360.663208,389.847931
	C359.330688,388.594147 358.472900,385.845947 358.761322,384.004333
	C365.741943,339.434265 372.885315,294.889526 380.129211,250.361343
	C380.410522,248.632217 381.609863,246.629974 383.001648,245.567169
	C404.841278,228.889709 426.758759,212.313583 448.751831,195.838974
	C450.332764,194.654739 452.635956,193.856873 454.605164,193.853134
	C509.262970,193.749329 563.921082,193.747864 618.578735,193.874756
	C620.444214,193.879074 622.757385,194.925674 624.100891,196.255371
	C640.207092,212.195877 656.217529,228.234482 672.081482,244.415588
	C673.418274,245.779068 674.371765,248.491455 674.070496,250.344208
	C667.925598,288.139801 661.629211,325.911133 655.245605,363.667480
	C645.919678,418.826935 636.533813,473.976379 627.008911,529.101624
	C626.607239,531.425903 625.030212,534.072266 623.183594,535.541565
	C601.674438,552.656189 580.049500,569.626709 558.315491,586.454834
	C556.285522,588.026550 553.305115,589.156738 550.762085,589.164185
	C496.937958,589.321777 443.113129,589.246948 389.288849,589.383606
	C385.577576,589.393066 383.225281,588.273621 380.872406,585.473389
	C367.690491,569.785400 354.356842,554.223816 340.952179,538.725281
	C338.915588,536.370544 338.285522,534.225525 338.835266,531.105713
	C341.662994,515.057800 344.220642,498.962341 346.909363,482.660583
	C377.008606,482.660583 406.766846,482.660583 437.099792,482.660583
	C435.616821,492.315979 434.164185,501.773956 432.650085,511.632019
	C468.227386,511.632019 503.465942,511.632019 539.305542,511.632019
	C543.567871,485.687683 547.851013,459.617096 552.232910,432.945129
	C510.397919,432.945129 468.949127,432.945129 427.000549,432.944672
M534.500000,358.957367
	C544.293396,358.957367 554.086792,358.957367 564.245300,358.957367
	C568.984314,329.493469 573.668945,300.367798 578.389404,271.019287
	C576.959778,270.856476 576.322083,270.720856 575.684326,270.720245
	C540.722656,270.687073 505.760742,270.715515 470.799622,270.561462
	C467.451019,270.546722 466.621033,271.902039 466.167969,274.790497
	C463.641235,290.898560 460.957611,306.981964 458.339050,323.075684
	C456.424042,334.845337 454.526611,346.617859 452.529541,358.956116
	C479.957672,358.956116 506.728851,358.956116 534.500000,358.957367
z"/>
<path fill="#020202" opacity="1.000000" stroke="none"
	d="
M950.152344,971.214355
	C950.508301,980.823853 946.581238,987.204346 939.226990,992.952209
	C915.212158,1011.721619 891.769775,1031.222778 868.025818,1050.341553
	C866.756592,1051.363525 864.743042,1051.914673 863.073730,1051.919434
	C829.742432,1052.014160 796.410645,1052.039673 763.079773,1051.894775
	C761.047668,1051.885986 758.514526,1050.861328 757.072632,1049.439209
	C743.429077,1035.982178 729.929688,1022.377319 716.534607,1008.672546
	C715.370483,1007.481445 714.560791,1005.197937 714.740173,1003.547180
	C722.011047,936.634583 729.437012,869.738831 736.790771,802.835144
	C739.739990,776.003967 742.501465,749.151733 745.567017,722.334106
	C745.833801,720.000549 747.217957,717.271179 748.963745,715.710999
	C766.978394,699.611267 785.138245,683.672791 803.383911,667.834900
	C804.962341,666.464722 807.439209,665.429932 809.503052,665.422424
	C847.667175,665.283142 885.832031,665.290833 923.996155,665.425598
	C925.902222,665.432373 928.258972,666.396912 929.636902,667.717712
	C946.117188,683.514954 962.423889,699.493164 978.859009,715.337891
	C980.951843,717.355469 981.763794,719.248535 981.380005,722.285522
	C970.914062,805.104126 960.567383,887.937805 950.152344,971.214355
M804.913147,906.311462
	C802.195068,929.600464 799.477051,952.889526 796.726501,976.457153
	C821.229004,976.457153 845.271179,976.457153 869.737366,976.457153
	C879.036743,898.174072 888.299561,820.198303 897.591431,741.978760
	C872.622620,741.978760 848.385681,741.978760 823.902893,741.978760
	C821.764465,760.883911 819.697266,779.568115 817.529175,798.240662
	C813.380920,833.967224 809.175232,869.687195 804.913147,906.311462
z"/>
<path fill="#020202" opacity="1.000000" stroke="none"
	d="
M657.954895,1051.982788
	C632.839478,1051.984131 608.215820,1051.984131 583.066162,1051.984131
	C594.167297,957.539917 605.217834,863.526978 616.334534,768.950867
	C605.034729,768.950867 594.158936,768.950867 582.284424,768.950867
	C583.759033,767.232056 584.494690,766.245789 585.357544,765.387329
	C617.830383,733.078674 650.292908,700.759338 682.871033,668.557068
	C684.317383,667.127441 686.810120,666.107849 688.852112,666.042480
	C697.461182,665.766785 706.084106,665.925903 715.514709,665.925903
	C699.625366,794.811462 683.816895,923.041199 667.920776,1051.981445
	C664.639526,1051.981445 661.543091,1051.981445 657.954895,1051.982788
z"/>
<path fill="#FCFCFC" opacity="1.000000" stroke="none"
	d="
M534.000000,358.956726
	C506.728851,358.956116 479.957672,358.956116 452.529541,358.956116
	C454.526611,346.617859 456.424042,334.845337 458.339050,323.075684
	C460.957611,306.981964 463.641235,290.898560 466.167969,274.790497
	C466.621033,271.902039 467.451019,270.546722 470.799622,270.561462
	C505.760742,270.715515 540.722656,270.687073 575.684326,270.720245
	C576.322083,270.720856 576.959778,270.856476 578.389404,271.019287
	C573.668945,300.367798 568.984314,329.493469 564.245300,358.957367
	C554.086792,358.957367 544.293396,358.957367 534.000000,358.956726
z"/>
<path fill="#FCFCFC" opacity="1.000000" stroke="none"
	d="
M804.953308,905.860718
	C809.175232,869.687195 813.380920,833.967224 817.529175,798.240662
	C819.697266,779.568115 821.764465,760.883911 823.902893,741.978760
	C848.385681,741.978760 872.622620,741.978760 897.591431,741.978760
	C888.299561,820.198303 879.036743,898.174072 869.737366,976.457153
	C845.271179,976.457153 821.229004,976.457153 796.726501,976.457153
	C799.477051,952.889526 802.195068,929.600464 804.953308,905.860718
z"/>
</svg>